<svg id="Layer_1" data-name="Layer 1" xmlns="http://www.w3.org/2000/svg" viewBox="0 0 327.91 343.58"><path d="M294.69,354.42c-1.78-.37-3.58-.67-5.33-1.12a67.41,67.41,0,0,1-27.34-14,25.42,25.42,0,0,0-9.27-4.69c-8.72-2.8-17.55-5.32-26.41-7.66a253.88,253.88,0,0,1-36.75-12.64c-5.53-2.41-11.35-4.19-17-6.29a7.51,7.51,0,0,1-2.47-1.31,49.32,49.32,0,0,0-19.4-10.82,82.6,82.6,0,0,1-13.58-5.68c-6.39-3.24-12.66-6.75-18.84-10.38-7.49-4.39-13.92-10.13-20.34-16-4.6-4.17-10-7.49-15.21-10.92-2.84-1.86-6.28-2.84-9-4.82a59.45,59.45,0,0,1-8.57-7.92c-2.88-3.12-5.37-6.61-8.09-9.88-4.1-4.91-8.31-9.72-12.36-14.66A145.65,145.65,0,0,1,35,203.15a78.93,78.93,0,0,1-9.14-19.74c-3.79-12.27-8-24.45-11-36.9-2.73-11.09-3.12-22.59-2.63-34a156.48,156.48,0,0,1,11.41-53c1.05-2.58,2.11-5.17,3.27-7.7A43.49,43.49,0,0,1,39.43,36.14,173.83,173.83,0,0,1,64.64,19.68c13.37-7.4,27.87-9.11,42.8-8.81a155.34,155.34,0,0,1,34.66,4.89c5.09,1.27,10.07,3,15.08,4.53a6.4,6.4,0,0,1,2,1.27c7.24,6.23,14.55,12.4,21.67,18.77a100,100,0,0,1,13,14.23c2.57,3.38,6.37,5.85,9.72,8.6,7.12,5.84,15.11,10.29,23.2,14.67,11,6,22.85,9.42,35,12.16l12,2.69c-2.89,1.67-25.16-3.89-40-10.34a135,135,0,0,1-35.38-22.13c.73,3.72,1.55,7.13,2.06,10.59a45.05,45.05,0,0,1-.85,17.3c-2.73,11.29-8.48,20.5-18.48,26.61-6.61,4-13.56,7.53-20.27,11.43-7.48,4.34-14.89,8.81-22.27,13.33a34.34,34.34,0,0,0-7.24,5.26,21.8,21.8,0,0,0-3.94,7,61.19,61.19,0,0,0-4.13,18.63,62.68,62.68,0,0,0,3.83,25.32c.23.62.47,1.23.67,1.86,0,.07-.16.21-.63.83-.91-2.49-1.85-4.63-2.48-6.86-3.14-11.14-3.56-22.36-.3-33.53,1.25-4.27,3.16-8.35,4.83-12.5a3.35,3.35,0,0,1,1.23-1.48c6.46-4.19,12.82-8.56,19.46-12.44,8.28-4.84,16.89-9.12,25.2-13.92,5.53-3.19,10.87-6.81,14.92-11.85a45.49,45.49,0,0,0,9.58-22.62,47.34,47.34,0,0,0-1.72-20.07c-.68-2.33-1.48-4.5-3.49-6.19-1.41-1.2-2.34-3-3.45-4.53-3.85-5.37-8.93-9.52-13.8-13.87-6-5.34-12.06-10.56-18.15-15.76A9.07,9.07,0,0,0,155.79,21c-4.64-1.38-9.37-2.48-14-3.93-12.45-3.91-25.26-5.16-38.21-5.16-9.28,0-18.59.54-27.38,3.87A95.38,95.38,0,0,0,61.71,22.5c-6.58,3.83-13,8-19.18,12.44-8.79,6.23-14.3,14.91-18.11,24.89a164.87,164.87,0,0,0-10.71,45.06,147,147,0,0,0,1.86,40.66c1.14,5.89,3.18,11.61,5,17.36,2.87,9.17,5.54,18.42,8.94,27.4a66.06,66.06,0,0,0,12.9,20.9c4.14,4.58,8.2,9.24,12.13,14s7.68,10,11.8,14.78a33.21,33.21,0,0,0,11.28,8.94,82.58,82.58,0,0,1,22.79,15.89,86.07,86.07,0,0,0,12.86,10.4c6.14,3.94,13,6.75,19.07,10.82a80.75,80.75,0,0,0,22.5,10.22c5.81,1.73,10.66,5.08,15.18,9a11.27,11.27,0,0,0,3.58,2c5.66,2,11.41,3.83,17,6,6.47,2.5,12.73,5.56,19.27,7.87,5,1.78,10.36,2.72,15.52,4.13,11.72,3.2,23.57,6.05,34.62,11.28,1.51.72,2.66,2.19,4,3.27,5.84,4.59,12.44,7.7,19.31,10.46a41.91,41.91,0,0,0,25.2,2.34A36.65,36.65,0,0,0,328.93,340c.74-.89.75-2.48.91-3.77,1.39-10.64,2.78-21.28,4.06-31.93a24.09,24.09,0,0,0-.18-5.29c-1-9.57.41-18.88,2.62-28.19a136.57,136.57,0,0,0,2.43-16.77,4.83,4.83,0,0,0-1.52-3.35c-3.67-3.62-7.72-6.87-11.23-10.64s-7.34-6.2-12.18-6.92a27.46,27.46,0,0,0-8.95.26c-2.89.56-4.66,3.09-5.18,5.81-1.47,7.78-6.15,13.35-11.85,18.29a159.07,159.07,0,0,1-23,16.6,34.56,34.56,0,0,0-4.45,3.13c-2.46,2-5.46,1.66-8.24,1.84a73.31,73.31,0,0,1-23.67-2c-9.85-2.66-19.48-6-28.12-11.66-2.62-1.71-4.94-3.89-7.57-5.6-3.62-2.36-7.38-4.51-11.12-6.68-9.14-5.28-19.59-6.82-29.43-10.09-9.57-3.19-18.46-7.59-25.68-14.78-2.47-2.46-4.44-5.45-6.64-8.19s-4.35-5.7-6.77-8.32a71.38,71.38,0,0,1-18-37.13,70.51,70.51,0,0,1,2.94-35.67C101.91,128,110,121.37,121,118.3c11.21-3.12,22.47-6.09,33.64-9.32A98.66,98.66,0,0,0,166,104.67c2.8-1.2,5.47-2.71,8.15-4.17a4.3,4.3,0,0,0,1.49-1.56,37.78,37.78,0,0,0,4.31-31.14,6.86,6.86,0,0,0-2.09-3.2c-3.66-3.09-7.42-6-11.2-9-2.19-1.7-4.42-3.35-6.76-4.83A39.1,39.1,0,0,0,145.75,45c-6.87-1.27-13.52-3.67-20.36-5.17a56.8,56.8,0,0,0-27.74,1c-3.9,1.08-7.17,3.39-10.34,5.9A87.34,87.34,0,0,0,71.46,63.57a125.14,125.14,0,0,0-15.22,28,191.69,191.69,0,0,0-7.65,22.26,140.13,140.13,0,0,0-4,45.09,19.5,19.5,0,0,0,4,10.89c4.72,6.29,9.24,12.73,14,19a208,208,0,0,0,21.66,24.66c4.37,4.25,8.71,8.53,13.18,12.67,4.15,3.83,8.46,7.49,12.7,11.22,4.86,4.27,9.73,8.51,14.58,12.78s10,8.67,14.83,13.17c6,5.59,13.15,9.18,20.52,12.59a64,64,0,0,0,17,4.77,6.72,6.72,0,0,1,1.25.57c-.58.25-.89.53-1.13.47-5.54-1.38-11.31-2.24-16.57-4.35a76.58,76.58,0,0,1-20.8-12.19c-4.73-4-9.29-8.13-13.92-12.21l-14-12.38c-4.74-4.17-9.56-8.25-14.23-12.5-4.29-3.91-8.66-7.77-12.59-12-7.52-8.14-15.08-16.29-22-24.92-6.39-7.94-12.17-16.4-17.8-24.91-1.4-2.12-1.46-5.31-1.63-8A144.66,144.66,0,0,1,46.78,117a150.49,150.49,0,0,1,13.29-36c4.1-7.93,8.46-15.62,14.18-22.5,5.44-6.54,11.41-12.55,18.82-16.78,2.76-1.57,6.14-2.25,9.33-2.85,10.38-2,20.63-1.06,30.78,1.76,5.9,1.64,11.91,2.9,17.79,4.57A31.42,31.42,0,0,1,157.12,48c8.39,4.55,15.54,10.77,22.75,16.91a2.44,2.44,0,0,1,.67,1.08,38.59,38.59,0,0,1,.42,23c-1.5,5-3.17,9.88-5.12,14.68-1.61,3.94-4.77,6.66-8.51,8.66-4.32,2.3-8.65,4.57-13,6.86a4.15,4.15,0,0,0-1.12.7c-2.63,2.73-6.08,3-9.55,3.79-2.54.57-5.05,2.42-7,4.3-3.37,3.22-6.3,6.9-9.38,10.42a8.12,8.12,0,0,0-.93,1.69l-.61-.54c0-.2-.16-.46-.08-.58,4.49-6.21,9.06-12.37,16.21-15.81,1.33-.64,3-.55,4.46-1a20.57,20.57,0,0,0,4.21-1.61c4.13-2.32,8.1-4.94,12.31-7.11s8.5-4.14,11.07-8.4c.71-1.18,1.19-2.49,2-4.31-1.57.7-2.71,1.09-3.74,1.68-9.94,5.74-20.86,8.84-31.84,11.78-6.7,1.79-13.44,3.45-20.12,5.32a29.33,29.33,0,0,0-12.73,6.83,35.21,35.21,0,0,0-9.75,16.67c-4.13,15.59-3.53,30.84,2.35,45.88a65.83,65.83,0,0,0,16.14,24.43A16.62,16.62,0,0,1,119,216.8a54.92,54.92,0,0,0,25,21.87c8.56,3.84,17.64,5.76,26.46,8.63,8.44,2.75,16.36,6.43,23.31,12,10.9,8.68,23.27,13.92,36.82,17,8.23,1.89,16.4,1.88,24.68,1.64,2.13-.06,3.6-1.23,5.24-2.31,5.17-3.4,10.62-6.39,15.58-10.06a165,165,0,0,0,15.31-12.88,24.68,24.68,0,0,0,7.07-12.46c1.8-7.54,5.92-8.61,12.58-8.49.28,0,.57,0,1.41,0-6.4-4.45-12.83-7.15-20.51-6.11l.16-1.06c2,0,4.07-.12,6.1,0,5.54.38,10.12,3.08,14.57,6.13a16.67,16.67,0,0,0,3.64,1.92,25.84,25.84,0,0,1,11,7.38,94,94,0,0,0,7.41,6.94,18.33,18.33,0,0,0,.29-11.4A41.46,41.46,0,0,0,333,230a13.17,13.17,0,0,1-.86-8.19,3.41,3.41,0,0,0-.27-2.06,52.54,52.54,0,0,0-3.57-6.56,7.33,7.33,0,0,1-1.15-6.81,2.89,2.89,0,0,0-.79-2.32c-2.55-2.62-4.72-5.46-5.49-9.09a5.34,5.34,0,0,0-2.64-3.73,47.35,47.35,0,0,1-4.62-3.67l.4-.57a27.92,27.92,0,0,1,3,1.89c2.21,1.78,4.6,3.24,5.11,6.62s2.95,5.79,5.36,8.1c.45.44,1.06,1.33.9,1.69-1.88,4.18.82,7.25,2.44,10.57a17.19,17.19,0,0,0,1.1,1.91,6.48,6.48,0,0,1,1.1,5.49,10.39,10.39,0,0,0,.94,6.16c2.64,5.68,3.7,11.41,2.11,17.58a2.65,2.65,0,0,0,1.13,2.06,5.88,5.88,0,0,1,2.63,6.44c-1.08,6.44-1.87,12.94-3.31,19.3A74.58,74.58,0,0,0,334.74,298c.75,8.35-.47,16.6-1.8,24.82-.86,5.3-1.61,10.61-2.45,15.91a4.07,4.07,0,0,1-.8,2,46.27,46.27,0,0,1-11.64,9.35c-4,2.44-8.4,3.2-12.75,4.35Z" transform="translate(-11.99 -10.84)"/><path d="M189.44,182.11c-4.82,1.67-9.13,4.17-12.17,8.64-1.49,2.18-3.46,4-5.08,6.12-2.06,2.66-4.08,5.35-5.93,8.16a5.11,5.11,0,0,1-3.38,2.49c-2,.42-4,.95-6,1.44l-.21-.76a44.56,44.56,0,0,1,4.82-1.38,6.67,6.67,0,0,0,4.59-3.26c2.63-3.79,5.76-7.22,8.44-11,2.91-4.07,6.12-7.73,10.77-9.8,3.54-1.58,7.29-2.71,10.75-4.44,6.74-3.37,13.65-3.36,20.72-1.64,1.22.3,2.29,1.25,3.52,1.54,2.7.62,5.48.94,8.19,1.51a16.87,16.87,0,0,1,5,1.52c2.87,1.69,5.54.46,8.27-.09.47-.1.78-.92,1.2-1.38,1-1.1,2-2.17,3-3.29a3.81,3.81,0,0,0,.92-1.53,12.47,12.47,0,0,1,10.72-9.34c.83-.07,1.63-.74,2.44-.73a26.12,26.12,0,0,1,4.2.55c1.86.31,3.88.35,5.55,1.12,3.42,1.54,7,3.09,9.86,5.4,2.67,2.14,3.59,5.57,3.57,9.16,0,4.35-2.61,7.13-5.46,9.85-3.19,3-6.36,6.09-9.44,9.23a4.08,4.08,0,0,0-1.05,2.5c-.06,3.24.09,6.48.14,9.72a2.68,2.68,0,0,0,2.32,2.92c4.21,1,8.37,2.25,12.56,3.33a10.14,10.14,0,0,0,2.8.29,6,6,0,0,1,6.13,3.76,6.94,6.94,0,0,1-1.86,7.42,30,30,0,0,0-4.79,5.6c-3.95,6.35-9,11-16.7,12.13a24.32,24.32,0,0,0-3.94,1.39,26.07,26.07,0,0,1-15.2.36,4.16,4.16,0,0,0-1.91-.26c-6.26,1.69-12-.48-17.81-2.26-3.59-1.1-7.26-2-10.95-2.78a8.29,8.29,0,0,1-5.59-3.89,7,7,0,0,0-1.83-1.59,15.16,15.16,0,0,1-1.73-1c-2.25-2.13-4.43-4.33-6.65-6.49a5.45,5.45,0,0,0-1.18-.92c-2.76-1.48-3.84-4-4-6.91a3.38,3.38,0,0,0-1.43-2.63,11,11,0,0,1-2.26-3.14c-.94-1.79-1.52-3.78-2.53-5.51-4.23-7.27-4.91-14.95-3-23C188.39,187,188.88,184.61,189.44,182.11Z" transform="translate(-11.99 -10.84)"/></svg>